PathFileType	4	(X/Y/Z)	c:/Users/goper/Files/vsCode/490R/osim_files/A03/A03_SSWS_06.trc
DataRate	CameraRate	NumFrames	NumMarkers	Units                	OrigDataRate	OrigDataStartFrame	OrigNumFrames
250.00	250.00	10	36	mm	250.0	1256	2510
                Frame#	Time	LPSIS			LASIS			LTH1			LTH2			LTH3			LTH4			LLFE			LMFE			LSH1			LSH2			LSH3			LSH4			LLMAL			LMMAL			LCAL			LMTP5			LTOE			LMTP1			RPSIS			RASIS			RTH1			RTH2			RTH3			RTH4			RLFE			RMFE			RSH1			RSH2			RSH3			RSH4			RLMAL			RMMAL			RCAL			RMTP1			RTOE			RMTP5		
		X1	Y1	Z1	X2	Y2	Z2	X3	Y3	Z3	X4	Y4	Z4	X5	Y5	Z5	X6	Y6	Z6	X7	Y7	Z7	X8	Y8	Z8	X9	Y9	Z9	X10	Y10	Z10	X11	Y11	Z11	X12	Y12	Z12	X13	Y13	Z13	X14	Y14	Z14	X15	Y15	Z15	X16	Y16	Z16	X17	Y17	Z17	X18	Y18	Z18	X19	Y19	Z19	X20	Y20	Z20	X21	Y21	Z21	X22	Y22	Z22	X23	Y23	Z23	X24	Y24	Z24	X25	Y25	Z25	X26	Y26	Z26	X27	Y27	Z27	X28	Y28	Z28	X29	Y29	Z29	X30	Y30	Z30	X31	Y31	Z31	X32	Y32	Z32	X33	Y33	Z33	X34	Y34	Z34	X35	Y35	Z35	X36	Y36	Z36

1256	5.02000	107.03977	1070.79114	243.55910	-134.42612	1007.12299	359.84851	-236.29434	681.54535	426.10492	-259.61148	645.79779	426.10080	-287.34195	707.76630	404.19995	-302.61725	666.82312	405.51611	-261.84140	587.42334	418.02298	-286.97412	585.49792	264.05438	-212.42676	506.12396	413.18454	-208.85799	457.99289	409.36423	-273.29172	493.70346	407.90082	-259.25128	448.58899	400.87643	-173.14326	136.34596	363.52185	-186.38193	142.63910	264.85913	-103.49109	129.75215	307.98962	-315.47977	59.26557	373.77237	-347.74811	89.11100	305.99146	-315.61523	72.42137	260.31393	107.59335	1080.79858	159.99063	-130.27876	985.50726	64.11935	-30.84106	619.91376	31.49835	-35.01067	575.55127	40.37587	-92.24019	618.99902	37.62160	-88.62710	575.14221	45.28958	-54.02621	539.64154	55.92080	-94.48981	544.64337	174.33415	6.20227	478.77026	57.02108	14.66487	438.60281	46.46254	-54.17384	462.04660	50.72296	-36.84438	418.53583	42.32772	50.14255	125.52440	94.01643	19.29025	112.94427	175.87383	104.90238	88.20673	152.15771	-103.01325	50.11216	195.10997	-131.69824	74.49620	146.51572	-101.57820	42.14284	76.65799
1257	5.02400	102.94610	1070.76770	244.24290	-138.63576	1006.65106	360.05176	-240.32547	681.19434	425.16122	-263.89172	645.54199	425.10486	-291.29099	707.72662	403.42795	-306.84314	666.77991	404.65933	-266.00803	587.48047	416.93552	-291.65561	585.53693	263.10199	-218.75011	504.83914	412.34396	-216.49901	456.58911	408.70587	-279.95499	494.04868	407.29739	-267.24536	448.52859	400.42743	-189.74309	133.90776	364.12909	-203.12923	140.20650	265.50082	-120.45261	125.17363	308.46176	-334.01080	60.72778	375.23380	-365.23895	90.59263	307.51456	-333.58426	72.89159	261.45871	103.61033	1080.86951	160.66609	-133.78955	985.01868	64.30241	-32.59916	619.68878	31.72731	-36.59972	575.34637	40.61219	-94.04231	618.51147	37.76259	-90.18611	574.65356	45.47598	-55.47140	539.32996	56.16413	-96.32679	544.49994	174.03693	5.00276	478.65393	57.33738	13.59693	438.46512	46.75571	-55.16977	461.76093	50.91447	-37.78798	418.24081	42.53913	50.21332	125.54097	94.13685	19.38601	112.93098	176.00583	104.92455	88.01994	152.19136	-102.78753	50.23925	194.82782	-131.49478	74.57874	146.41550	-101.51301	42.19712	76.60412
1258	5.02800	98.76362	1070.72009	244.92340	-142.93518	1006.12872	360.25775	-244.19806	680.65472	424.38702	-268.00659	645.15979	424.14749	-295.14877	707.54602	402.68271	-310.71985	666.68768	403.71808	-270.04861	587.38135	415.89563	-296.16113	585.52777	262.08038	-225.02229	503.48782	411.52295	-224.10449	455.14725	408.07047	-286.51483	494.31335	406.67664	-275.05856	448.44629	399.99463	-206.19107	131.67873	364.55002	-219.82738	137.92259	266.14255	-137.41089	120.84598	308.98157	-352.23236	62.31340	376.51849	-384.00659	93.53704	309.67108	-351.53653	73.80035	262.61716	99.61005	1080.87854	161.37839	-137.28241	984.46484	64.39159	-34.47665	619.37463	31.80303	-38.35575	575.05615	40.86627	-95.86076	618.05042	37.91151	-91.87910	574.22260	45.64476	-57.01961	538.98328	56.33399	-98.05539	543.95447	174.21098	3.81174	478.56284	57.66197	12.48516	438.31326	47.02055	-56.38182	461.36292	51.16288	-38.70609	417.99887	42.70812	50.34710	125.50073	94.26868	19.40435	112.85469	176.09958	105.00285	87.88566	152.28847	-102.73978	50.30679	194.76537	-131.35857	74.62395	146.41147	-101.48245	42.22850	76.59667
1259	5.03200	94.61626	1070.58704	245.61896	-147.10600	1005.41559	360.48608	-248.19389	679.96112	423.60294	-272.07739	644.61652	423.26273	-298.82007	707.20081	401.97897	-314.75168	666.49597	402.87494	-274.07178	587.19299	414.85010	-300.69586	585.36798	261.19870	-231.19751	502.08115	410.70444	-231.59541	453.71317	407.43549	-292.91589	494.57190	406.09839	-282.72458	448.36179	399.55157	-222.62242	129.68727	365.25604	-236.33600	135.74396	266.83655	-154.31145	116.80070	309.52768	-370.48776	64.38191	378.03848	-401.80307	96.16624	310.66287	-371.13397	77.02707	263.53952	95.58543	1080.85059	162.09711	-139.97820	983.85718	63.94308	-36.28516	619.17365	32.06089	-39.50314	574.99200	40.51665	-97.69266	617.52142	38.08171	-93.58683	573.77283	45.74783	-58.50498	538.63306	56.55359	-99.78661	543.39551	174.39505	2.49088	478.43646	57.95679	11.23173	438.11993	47.28517	-57.45197	461.00598	51.31999	-39.74755	417.68668	42.91596	50.36680	125.50166	94.44605	19.55685	112.86335	176.25035	105.07724	87.76368	152.37634	-102.71480	50.31032	194.74213	-131.36700	74.59116	146.40421	-101.42690	42.24836	76.56412
1260	5.03600	90.42528	1070.44580	246.28781	-151.34451	1004.69275	360.69537	-251.95671	679.16046	422.94064	-275.99289	643.94067	422.41565	-302.44855	706.75531	401.32675	-318.61823	666.06976	402.04129	-277.89969	586.84570	413.76846	-305.01535	585.14508	260.20145	-237.27167	500.61639	409.89050	-238.97107	452.24384	406.81693	-299.15631	494.72726	405.50510	-290.30197	448.26413	399.06876	-238.94743	127.96571	365.94662	-252.84935	133.96387	267.50867	-170.64803	113.26560	310.72366	-388.42999	66.71104	379.59027	-418.08469	98.24271	312.16940	-389.15225	78.94224	265.00177	91.56434	1080.76917	162.80482	-143.63441	983.44281	64.14475	-38.12041	619.02667	32.48294	-41.17952	574.75201	40.74226	-99.62438	616.96912	38.20378	-95.29304	573.21814	45.87315	-60.09826	538.21692	56.73117	-101.55572	542.76807	174.52661	1.17567	478.28543	58.26540	10.10420	437.95789	47.55901	-58.73433	460.59869	51.54581	-40.77681	417.24875	43.27051	50.42009	125.51006	94.52034	19.70109	112.89623	176.38441	105.18265	87.61216	152.41107	-102.45165	50.38879	194.70131	-131.19760	74.61588	146.40111	-101.36968	42.26416	76.53348
1261	5.04000	86.23759	1070.19983	246.98886	-155.54808	1003.90607	360.91248	-255.19812	678.30676	422.50516	-279.84506	643.15509	421.62860	-305.89990	706.15497	400.72052	-322.33606	665.57819	401.29803	-281.66895	586.46423	412.71359	-309.34763	584.80243	259.29651	-243.25191	499.17276	409.03656	-246.24109	450.82281	406.15964	-305.28836	494.89398	404.87793	-297.73718	448.13074	398.59628	-255.10712	126.49606	366.65817	-269.16943	132.36784	268.30038	-187.98703	109.41058	310.61325	-406.10825	69.35567	381.09479	-436.51199	102.43772	312.47260	-406.96585	81.13377	266.49762	87.57885	1080.67944	163.49738	-147.21194	982.82898	64.30145	-40.01647	618.74512	32.72377	-42.97488	574.43866	41.00253	-101.51816	616.45752	38.34700	-96.98457	572.67535	45.98109	-61.73144	537.87085	56.88683	-103.46906	542.19574	174.61151	-0.15597	478.12299	58.56826	8.76658	437.70618	47.82993	-59.93069	460.21082	51.64896	-41.82259	417.01801	43.18107	50.46692	125.49526	94.61668	19.60571	112.75704	176.43700	105.27959	87.48955	152.46394	-102.41285	50.36395	194.68816	-131.09352	74.60336	146.36827	-101.32841	42.26985	76.51534
1262	5.04400	82.05847	1069.93054	247.70145	-159.79585	1003.05743	361.12762	-259.17969	677.24481	421.68716	-283.78149	642.28766	420.89008	-309.39517	705.50842	400.17020	-326.03979	665.02234	400.58841	-285.36685	585.94379	411.62997	-313.52658	584.36694	258.33359	-249.30386	497.41125	407.60828	-253.44518	449.41098	405.50302	-311.37186	494.99094	404.25354	-305.04919	448.04453	398.13388	-271.54657	124.96888	366.96744	-285.38541	131.13376	269.05154	-204.65759	106.17118	311.18057	-423.57202	72.30222	382.61395	-452.00589	104.64359	315.12238	-424.57620	83.58814	268.00235	83.55901	1080.50244	164.21939	-151.48448	981.99353	64.71265	-41.95230	618.34406	32.78853	-44.82239	574.12646	41.20868	-103.43555	615.89923	38.42411	-98.76512	572.18689	46.08996	-63.42157	537.47870	57.02267	-105.49950	541.58203	174.61664	-1.65767	477.87482	58.86567	7.58247	437.55475	48.06105	-61.29082	459.74680	51.82946	-42.98240	416.66431	43.35796	50.50586	125.47545	94.77832	19.58886	112.68420	176.54607	105.35343	87.36226	152.50189	-102.62457	50.19295	194.73294	-131.02570	74.60953	146.33453	-101.28767	42.28064	76.47511
1263	5.04800	77.81663	1069.55969	248.40227	-164.09000	1002.13239	361.35361	-262.86304	676.12531	421.22330	-287.57281	641.32227	420.24249	-312.72125	704.67120	399.72119	-329.72186	664.32452	399.88779	-289.05258	585.34326	410.56018	-317.75842	583.95197	257.43262	-255.20985	495.87225	406.79263	-260.61298	447.97241	404.89386	-317.27887	495.04343	403.62082	-312.29767	447.95227	397.70145	-287.35181	124.02397	367.66080	-301.43954	130.14915	269.78201	-221.17619	103.19013	311.76328	-440.65942	75.42496	384.13599	-468.56696	108.62198	316.00598	-441.77829	86.30349	269.46115	79.49390	1080.30188	164.93216	-156.84189	981.29962	61.92846	-43.99545	618.00043	33.00143	-46.69434	573.81293	41.37819	-105.42077	615.34869	38.49266	-100.56750	571.63519	46.12777	-65.09833	537.06421	57.16331	-107.71562	540.94824	174.48392	-3.09943	477.67087	59.11309	6.24148	437.32977	48.27462	-62.64195	459.33292	51.90870	-44.19398	416.28918	43.47961	50.50091	125.46030	94.87368	19.58327	112.59873	176.63708	105.42840	87.29079	152.56093	-102.59325	50.16716	194.70978	-130.97211	74.57188	146.31972	-101.21986	42.27813	76.43011
1264	5.05200	73.54790	1069.17493	249.09065	-168.40321	1001.16119	361.64175	-265.61847	675.02032	421.43616	-291.43839	640.23517	419.60605	-316.05450	703.73993	399.33447	-333.46793	663.57880	399.23093	-292.66730	584.66528	409.53012	-321.88904	583.41797	256.50046	-261.10934	494.31192	405.98105	-267.72293	446.57593	404.29999	-323.22409	495.07556	403.01315	-319.46936	447.82974	397.22940	-302.89676	123.31213	368.34607	-317.18427	129.40810	270.54431	-237.50114	100.57726	312.31879	-457.42361	78.80246	385.52496	-485.52478	113.23234	316.91690	-458.72397	89.20061	271.04440	75.42230	1080.05139	165.64922	-159.22041	980.84241	62.68530	-46.05554	617.65613	33.21310	-48.54194	573.48938	41.54522	-107.73877	614.67883	38.64808	-102.49263	571.09045	46.17493	-66.94238	536.57867	57.26307	-109.82508	540.39728	174.41440	-4.95909	477.79404	59.03373	4.86388	437.10498	48.45488	-64.05980	458.84793	52.00381	-45.37832	415.91037	43.56402	50.49512	125.43484	94.99944	19.61390	112.58967	176.73090	105.47483	87.19236	152.61194	-102.57370	50.15846	194.68399	-130.92572	74.55167	146.29707	-101.20346	42.25206	76.41666
1265	5.05600	69.27560	1068.70483	249.81374	-172.43324	1000.05359	361.98087	-269.40256	673.73163	420.95419	-295.24066	639.07422	418.92764	-319.43884	702.76685	398.99203	-337.04016	662.76355	398.57257	-296.39209	583.90442	408.49454	-326.05408	582.78210	255.60098	-266.96939	492.77396	405.17950	-274.73273	445.22083	403.69974	-329.04745	495.07611	402.41599	-326.50565	447.74100	396.80017	-318.19977	122.79905	369.09378	-332.48117	128.92198	271.71722	-253.55281	98.27068	312.90305	-473.72952	82.34933	386.96518	-501.11353	116.63820	319.89609	-475.15622	92.31285	272.37109	71.34315	1079.74329	166.37975	-162.85742	980.12622	62.77492	-48.18150	617.30743	33.37383	-50.57284	573.14081	41.67928	-109.58276	614.17761	38.60419	-104.43725	570.50238	46.17438	-68.71741	536.14539	57.34982	-112.03880	539.70892	174.37425	-6.60492	477.58142	59.17218	3.39212	436.87045	48.63357	-65.52000	458.41104	52.06358	-46.60789	415.53778	43.66391	50.48674	125.45480	95.10603	19.65206	112.59287	176.83531	105.58974	87.19704	152.64014	-102.55865	50.13652	194.65785	-130.85593	74.54465	146.25233	-101.15379	42.25404	76.38071
